#VRML V2.0 utf8
# 3D model generated by kicad-lcsc-manager
# Based on easyeda2kicad.py v1.0.1

Shape{
    appearance Appearance {
        material  Material {
            diffuseColor 0.9137254901960784 0.9137254901960784 0.9137254901960784
            specularColor 0.4588235294117647 0.4588235294117647 0.4588235294117647
            ambientIntensity 0.9137
            transparency 0.0
            shininess 0.5
        }
    }
    geometry IndexedFaceSet {
        ccw TRUE
        solid FALSE
        coord DEF co Coordinate {
            point [
                -1.1379 0.0959 -0.7087, -1.1379 0.0959 -1.378, -1.1379 -0.0813 -0.7087, -1.1379 -0.0813 -1.378, -1.1674 0.0959 -0.7087, -1.1674 -0.0813 -0.7087, -1.1674 0.0959 -0.315, -1.1674 -0.0813 -0.315, -1.1379 0.0959 -0.315, -1.1379 -0.0813 -0.315, -1.1379 0.0959 0.3543, -1.1379 -0.0813 0.3543, -0.9253 0.0959 0.3543, -0.9253 -0.0813 0.3543, -0.9253 0.0959 0.5906, -0.9253 -0.0813 0.5906, -0.6497 0.0959 0.5906, -0.6497 -0.0813 0.5906, -0.6497 0.0959 0.0787, -0.6497 -0.0813 0.0787, -0.8623 0.0959 0.0787, -0.8623 -0.0813 0.0787, -0.8623 0.0959 -0.315, -0.8623 -0.0813 -0.315, -0.8327 0.0959 -0.315, -0.8327 -0.0813 -0.315, -0.8327 0.0959 -0.7087, -0.8327 -0.0813 -0.7087, -0.8623 0.0959 -0.7087, -0.8623 -0.0813 -0.7087, -0.8623 0.0959 -1.378, -0.8623 -0.0813 -1.378, -0.1378 0.0959 0.5906, -0.1378 0.0959 -1.378, -0.1378 -0.0813 0.5906, -0.1378 -0.0813 -1.378, 0.1378 0.0959 0.5906, 0.1378 -0.0813 0.5906, 0.1378 0.0959 -1.378, 0.1378 -0.0813 -1.378, 0.6497 0.0959 0.5906, 0.6497 0.0959 0.0787, 0.6497 -0.0813 0.5906, 0.6497 -0.0813 0.0787, 0.9253 0.0959 0.5906, 0.9253 -0.0813 0.5906, 0.9253 0.0959 0.3543, 0.9253 -0.0813 0.3543, 1.1379 0.0959 0.3543, 1.1379 -0.0813 0.3543, 1.1379 0.0959 -0.315, 1.1379 -0.0813 -0.315, 1.1674 0.0959 -0.315, 1.1674 -0.0813 -0.315, 1.1674 0.0959 -0.7087, 1.1674 -0.0813 -0.7087, 1.1379 0.0959 -0.7087, 1.1379 -0.0813 -0.7087, 1.1379 0.0959 -1.378, 1.1379 -0.0813 -1.378, 0.8623 0.0959 -1.378, 0.8623 -0.0813 -1.378, 0.8623 0.0959 -0.7087, 0.8623 -0.0813 -0.7087, 0.8327 0.0959 -0.7087, 0.8327 -0.0813 -0.7087, 0.8327 0.0959 -0.315, 0.8327 -0.0813 -0.315, 0.8623 0.0959 -0.315, 0.8623 -0.0813 -0.315, 0.8623 0.0959 0.0787, 0.8623 -0.0813 0.0787
            ]
        }
        coordIndex [
            0,1,2,-1,2,1,3,-1,4,0,5,-1,5,0,2,-1,6,4,7,-1,7,4,5,-1,8,6,9,-1,9,6,7,-1,10,8,11,-1,11,8,9,-1,12,10,13,-1,13,10,11,-1,14,12,15,-1,15,12,13,-1,16,14,17,-1,17,14,15,-1,18,16,19,-1,19,16,17,-1,20,18,21,-1,21,18,19,-1,22,20,23,-1,23,20,21,-1,24,22,25,-1,25,22,23,-1,26,24,27,-1,27,24,25,-1,28,26,29,-1,29,26,27,-1,30,28,31,-1,31,28,29,-1,1,30,3,-1,3,30,31,-1,28,6,26,-1,26,6,8,-1,4,6,0,-1,0,6,28,-1,0,28,1,-1,1,28,30,-1,24,26,22,-1,22,26,8,-1,22,8,20,-1,20,8,10,-1,20,10,18,-1,18,10,12,-1,18,12,16,-1,16,12,14,-1,3,31,2,-1,2,31,29,-1,27,25,29,-1,29,25,23,-1,17,15,19,-1,19,15,13,-1,19,13,21,-1,21,13,11,-1,21,11,23,-1,23,11,9,-1,23,9,29,-1,29,9,7,-1,29,7,2,-1,2,7,5,-1,32,33,34,-1,34,33,35,-1,36,32,37,-1,37,32,34,-1,38,36,39,-1,39,36,37,-1,33,38,35,-1,35,38,39,-1,36,38,32,-1,32,38,33,-1,39,37,35,-1,35,37,34,-1,40,41,42,-1,42,41,43,-1,44,40,45,-1,45,40,42,-1,46,44,47,-1,47,44,45,-1,48,46,49,-1,49,46,47,-1,50,48,51,-1,51,48,49,-1,52,50,53,-1,53,50,51,-1,54,52,55,-1,55,52,53,-1,56,54,57,-1,57,54,55,-1,58,56,59,-1,59,56,57,-1,60,58,61,-1,61,58,59,-1,62,60,63,-1,63,60,61,-1,64,62,65,-1,65,62,63,-1,66,64,67,-1,67,64,65,-1,68,66,69,-1,69,66,67,-1,70,68,71,-1,71,68,69,-1,41,70,43,-1,43,70,71,-1,58,60,56,-1,56,60,62,-1,64,66,62,-1,62,66,68,-1,40,44,41,-1,41,44,46,-1,41,46,70,-1,70,46,48,-1,70,48,68,-1,68,48,50,-1,68,50,62,-1,62,50,52,-1,62,52,56,-1,56,52,54,-1,63,53,65,-1,65,53,51,-1,55,53,57,-1,57,53,63,-1,57,63,59,-1,59,63,61,-1,67,65,69,-1,69,65,51,-1,69,51,71,-1,71,51,49,-1,71,49,43,-1,43,49,47,-1,43,47,42,-1,42,47,45,-1,
        ]
    }
}
Shape{
    appearance Appearance {
        material  Material {
            diffuseColor 0.5019607843137255 0.5019607843137255 0.5019607843137255
            specularColor 0.25098039215686274 0.25098039215686274 0.25098039215686274
            ambientIntensity 0.502
            transparency 0.0
            shininess 0.5
        }
    }
    geometry IndexedFaceSet {
        ccw TRUE
        solid FALSE
        coord DEF co Coordinate {
            point [
                0.9843 0.588 0.5906, 0.9843 -0.5144 0.5906, -0.0244 0.588 0.5906, 0.7875 -0.5144 0.5906, 0.7787 -0.6317 0.5906, 0.7525 -0.7464 0.5906, 0.7095 -0.856 0.5906, 0.6507 -0.9579 0.5906, 0.0589 -1.2996 0.5906, -0.0587 -1.2996 0.5906, -0.1751 -1.282 0.5906, -0.2876 -1.2473 0.5906, -0.3936 -1.1963 0.5906, -0.4908 -1.13 0.5906, -0.5771 -1.0499 0.5906, 0.5773 -1.0499 0.5906, 0.491 -1.13 0.5906, 0.3938 -1.1963 0.5906, -0.6505 -0.9579 0.5906, -0.7093 -0.856 0.5906, -0.7523 -0.7464 0.5906, 0.2878 -1.2473 0.5906, 0.1753 -1.282 0.5906, -0.9842 -0.5144 0.5906, -0.9842 0.588 0.5906, -0.7873 -0.5144 0.5906, -0.7785 -0.6317 0.5906, -0.7827 -0.5144 2.3489, -0.7689 -0.5144 2.433, -0.9842 -0.5144 3.3268, -0.7461 -0.5144 2.5152, -0.7145 -0.5144 2.5944, -0.1273 -0.5144 3.0408, -0.0425 -0.5144 3.05, 0.0427 -0.5144 3.05, 0.9843 -0.5144 3.3268, 0.1275 -0.5144 3.0408, 0.2107 -0.5144 3.0225, -0.7873 -0.5144 2.2638, -0.6746 -0.5144 2.6697, -0.6268 -0.5144 2.7403, -0.5716 -0.5144 2.8053, 0.442 -0.5144 2.9155, 0.5098 -0.5144 2.8639, 0.6748 -0.5144 2.6697, 0.7147 -0.5144 2.5944, 0.7463 -0.5144 2.5152, 0.7691 -0.5144 2.433, 0.7875 -0.5144 2.2638, 0.7829 -0.5144 2.3489, -0.5097 -0.5144 2.8639, -0.4418 -0.5144 2.9155, -0.3687 -0.5144 2.9595, -0.2914 -0.5144 2.9953, -0.2106 -0.5144 3.0225, 0.2915 -0.5144 2.9953, 0.3689 -0.5144 2.9595, 0.5717 -0.5144 2.8053, 0.6269 -0.5144 2.7403, 0.1012 0.588 2.4995, 0.1128 0.588 2.4982, 0.0757 0.588 2.4108, -0.01 0.588 2.4981, 0.0347 0.588 2.4981, 0.0347 0.588 2.4592, -0.0071 0.588 2.4592, -0.0071 0.588 2.4462, -0.0244 0.588 2.3922, 0.1416 0.588 2.403, 0.1504 0.588 2.4124, 0.1715 0.588 2.3929, 0.0869 0.588 2.4977, 0.0736 0.588 2.412, 0.0736 0.588 2.492, -0.01 0.588 2.511, -0.0244 0.588 3.3268, 0.0505 0.588 2.511, 0.9843 0.588 3.3268, 0.1552 0.588 2.4799, 0.1483 0.588 2.491, 0.2161 0.588 2.511, 0.1376 0.588 2.5012, 0.1264 0.588 2.5077, 0.9843 0.588 2.3922, 0.232 0.588 2.3929, 0.232 0.588 2.511, 0.1715 0.588 2.4059, 0.1567 0.588 2.4236, 0.2161 0.588 2.4059, 0.1132 0.588 2.5115, 0.1013 0.588 2.5125, 0.0872 0.588 2.5115, 0.0736 0.588 2.5078, 0.0505 0.588 2.3929, 0.0736 0.588 2.3991, 0.113 0.588 2.3922, 0.1206 0.588 2.393, 0.1321 0.588 2.3969, 0.1217 0.588 2.495, 0.1299 0.588 2.4896, 0.137 0.588 2.4817, 0.1456 0.588 2.4507, 0.1444 0.588 2.4379, 0.1412 0.588 2.4278, 0.1149 0.588 2.4057, 0.1039 0.588 2.4045, 0.1235 0.588 2.4089, 0.1307 0.588 2.4137, 0.1363 0.588 2.4196, 0.0882 0.588 2.4062, 0.1603 0.588 2.4361, 0.1614 0.588 2.4498, 0.1597 0.588 2.4666, 0.1419 0.588 2.4726, 0.145 0.588 2.4599, 0.0347 0.588 2.4462, 0.0347 0.588 2.4059, -0.0129 0.588 2.4059, -0.0129 0.588 2.3929, 0.1061 0.588 2.3915, 0.1028 0.588 2.3916, 0.0981 0.588 2.3922, -0.2289 0.588 2.3929, -0.2462 0.588 2.3929, -0.9842 0.588 2.3922, -0.2001 0.588 2.511, -0.9842 0.588 3.3268, -0.1843 0.588 2.511, -0.068 0.588 2.3929, -0.0359 0.588 2.3929, -0.0359 0.588 2.511, -0.0692 0.588 2.511, -0.1131 0.588 2.4956, -0.1215 0.588 2.4864, -0.1269 0.588 2.4762, -0.1396 0.588 2.3929, -0.1251 0.588 2.4253, -0.1183 0.588 2.4147, -0.0863 0.588 2.5092, -0.1001 0.588 2.5044, -0.113 0.588 2.4958, -0.1086 0.588 2.4054, -0.0963 0.588 2.3983, -0.0826 0.588 2.3942, -0.1569 0.588 2.3929, -0.1682 0.588 2.4261, -0.217 0.588 2.4261, -0.1301 0.588 2.4646, -0.131 0.588 2.4535, -0.1293 0.588 2.4377, 0.0861 0.588 2.3939
            ]
        }
        coordIndex [
            0,1,2,-1,2,1,3,-1,2,3,4,-1,4,5,2,-1,2,5,6,-1,2,6,7,-1,8,9,2,-1,2,9,10,-1,2,10,11,-1,11,12,2,-1,2,12,13,-1,2,13,14,-1,7,15,2,-1,2,15,16,-1,2,16,17,-1,14,18,2,-1,2,18,19,-1,2,19,20,-1,17,21,2,-1,2,21,22,-1,2,22,8,-1,23,24,25,-1,25,24,2,-1,25,2,26,-1,26,2,20,-1,27,28,29,-1,29,28,30,-1,29,30,31,-1,32,33,29,-1,29,33,34,-1,29,34,35,-1,35,34,36,-1,35,36,37,-1,27,29,38,-1,38,29,23,-1,38,23,25,-1,31,39,29,-1,29,39,40,-1,29,40,41,-1,35,42,43,-1,44,45,35,-1,35,45,46,-1,35,46,47,-1,3,1,48,-1,48,1,35,-1,48,35,49,-1,49,35,47,-1,41,50,29,-1,29,50,51,-1,29,51,52,-1,52,53,29,-1,29,53,54,-1,29,54,32,-1,37,55,35,-1,35,55,56,-1,35,56,42,-1,43,57,35,-1,35,57,58,-1,35,58,44,-1,59,60,61,-1,62,63,64,-1,65,66,67,-1,68,69,70,-1,59,61,71,-1,71,61,72,-1,71,72,73,-1,64,65,62,-1,62,65,67,-1,62,67,74,-1,74,67,75,-1,74,75,76,-1,76,75,77,-1,78,79,80,-1,80,79,81,-1,80,81,82,-1,83,84,77,-1,77,84,85,-1,77,85,80,-1,70,69,86,-1,86,69,87,-1,86,87,88,-1,82,89,80,-1,80,89,90,-1,80,90,77,-1,77,90,91,-1,77,91,76,-1,91,92,76,-1,76,92,73,-1,76,73,93,-1,93,73,72,-1,93,72,94,-1,95,96,70,-1,70,96,97,-1,70,97,68,-1,60,98,61,-1,61,98,99,-1,61,99,100,-1,101,102,61,-1,61,102,103,-1,104,105,106,-1,106,105,107,-1,103,108,61,-1,61,108,107,-1,61,107,109,-1,109,107,105,-1,87,110,88,-1,88,110,111,-1,88,111,80,-1,80,111,112,-1,80,112,78,-1,100,113,61,-1,61,113,114,-1,61,114,101,-1,115,116,66,-1,66,116,117,-1,66,117,67,-1,67,117,118,-1,67,118,93,-1,70,84,95,-1,95,84,83,-1,95,83,119,-1,119,83,0,-1,119,0,120,-1,120,0,2,-1,120,2,121,-1,122,67,123,-1,123,67,124,-1,123,124,125,-1,125,124,126,-1,125,126,127,-1,127,126,75,-1,128,129,67,-1,67,129,130,-1,67,130,75,-1,75,130,131,-1,132,133,127,-1,127,133,134,-1,135,136,137,-1,131,138,75,-1,75,138,139,-1,75,139,127,-1,127,139,140,-1,127,140,132,-1,137,141,135,-1,135,141,142,-1,135,142,143,-1,143,128,135,-1,135,128,67,-1,135,67,144,-1,144,67,122,-1,144,122,145,-1,145,122,146,-1,134,147,127,-1,127,147,148,-1,127,148,135,-1,135,148,149,-1,135,149,136,-1,94,150,93,-1,93,150,121,-1,93,121,67,-1,67,121,2,-1,67,2,124,-1,124,2,24,-1,1,0,35,-1,35,0,83,-1,35,83,77,-1,35,77,29,-1,29,77,75,-1,29,75,126,-1,24,23,124,-1,124,23,29,-1,124,29,126,-1,
        ]
    }
}
Shape{
    appearance Appearance {
        material  Material {
            diffuseColor 0.7529411764705882 0.7529411764705882 0.7529411764705882
            specularColor 0.3764705882352941 0.3764705882352941 0.3764705882352941
            ambientIntensity 0.7529
            transparency 0.0
            shininess 0.5
        }
    }
    geometry IndexedFaceSet {
        ccw TRUE
        solid FALSE
        coord DEF co Coordinate {
            point [
                -0.1722 0.5919 2.439, -0.1898 0.5919 2.4884, -0.1843 0.5919 2.511, -0.1396 0.5919 2.3929, -0.1569 0.5919 2.3929, -0.1682 0.5919 2.4261, -0.1909 0.5919 2.4925, -0.1917 0.5919 2.4966, -0.2001 0.5919 2.511, -0.1921 0.5919 2.4966, -0.1928 0.5919 2.4925, -0.1939 0.5919 2.4884, -0.2117 0.5919 2.439, -0.2462 0.5919 2.3929, -0.2289 0.5919 2.3929, -0.217 0.5919 2.4261, -0.2001 0.588 2.511, -0.2462 0.588 2.3929, -0.1843 0.588 2.511, -0.1396 0.588 2.3929, -0.1569 0.588 2.3929, -0.1682 0.588 2.4261, -0.217 0.588 2.4261, -0.2289 0.588 2.3929, -0.1722 0.588 2.439, -0.2117 0.588 2.439, -0.1939 0.588 2.4884, -0.1921 0.588 2.4966, -0.1928 0.588 2.4925, -0.1917 0.588 2.4966, -0.1898 0.588 2.4884, -0.1909 0.588 2.4925
            ]
        }
        coordIndex [
            0,1,2,-1,3,4,5,-1,1,6,2,-1,2,6,7,-1,2,7,8,-1,8,7,9,-1,8,9,10,-1,10,11,8,-1,8,11,12,-1,8,12,13,-1,14,13,15,-1,15,13,12,-1,15,12,5,-1,5,12,0,-1,5,0,3,-1,3,0,2,-1,8,13,16,-1,16,13,17,-1,2,8,18,-1,18,8,16,-1,3,2,19,-1,19,2,18,-1,4,3,20,-1,20,3,19,-1,5,4,21,-1,21,4,20,-1,15,5,22,-1,22,5,21,-1,14,15,23,-1,23,15,22,-1,13,14,17,-1,17,14,23,-1,0,12,24,-1,24,12,25,-1,12,11,25,-1,25,11,26,-1,9,27,28,-1,9,28,10,-1,10,28,26,-1,10,26,11,-1,9,7,27,-1,27,7,29,-1,1,30,31,-1,1,31,6,-1,6,31,29,-1,6,29,7,-1,1,0,30,-1,30,0,24,-1,
        ]
    }
}
Shape{
    appearance Appearance {
        material  Material {
            diffuseColor 0.5019607843137255 0.5019607843137255 0.5019607843137255
            specularColor 0.25098039215686274 0.25098039215686274 0.25098039215686274
            ambientIntensity 0.502
            transparency 0.0
            shininess 0.5
        }
    }
    geometry IndexedFaceSet {
        ccw TRUE
        solid FALSE
        coord DEF co Coordinate {
            point [
                -0.1722 0.588 2.439, -0.2117 0.588 2.439, -0.1898 0.588 2.4884, -0.1939 0.588 2.4884, -0.1909 0.588 2.4925, -0.1928 0.588 2.4925, -0.1917 0.588 2.4966, -0.1921 0.588 2.4966
            ]
        }
        coordIndex [
            0,1,2,-1,2,1,3,-1,2,3,4,-1,4,3,5,-1,4,5,6,-1,6,5,7,-1,
        ]
    }
}
Shape{
    appearance Appearance {
        material  Material {
            diffuseColor 0.7529411764705882 0.7529411764705882 0.7529411764705882
            specularColor 0.3764705882352941 0.3764705882352941 0.3764705882352941
            ambientIntensity 0.7529
            transparency 0.0
            shininess 0.5
        }
    }
    geometry IndexedFaceSet {
        ccw TRUE
        solid FALSE
        coord DEF co Coordinate {
            point [
                -0.1269 0.5919 2.4762, -0.1215 0.5919 2.4864, -0.1073 0.5919 2.4815, -0.1131 0.5919 2.4956, -0.1015 0.5919 2.4876, -0.113 0.5919 2.4958, -0.0929 0.5919 2.4932, -0.1001 0.5919 2.5044, -0.0832 0.5919 2.4966, -0.0863 0.5919 2.5092, -0.0692 0.5919 2.4981, -0.0692 0.5919 2.511, -0.0518 0.5919 2.4981, -0.0359 0.5919 2.511, -0.0518 0.5919 2.4059, -0.0359 0.5919 2.3929, -0.0685 0.5919 2.4059, -0.068 0.5919 2.3929, -0.081 0.5919 2.4071, -0.0826 0.5919 2.3942, -0.0909 0.5919 2.4102, -0.0963 0.5919 2.3983, -0.099 0.5919 2.4149, -0.1086 0.5919 2.4054, -0.1056 0.5919 2.4215, -0.1183 0.5919 2.4147, -0.1106 0.5919 2.4296, -0.1251 0.5919 2.4253, -0.1141 0.5919 2.4407, -0.1293 0.5919 2.4377, -0.1151 0.5919 2.4531, -0.131 0.5919 2.4535, -0.1141 0.5919 2.4649, -0.1301 0.5919 2.4646, -0.1114 0.5919 2.4742, -0.068 0.588 2.3929, -0.0359 0.588 2.3929, -0.0826 0.588 2.3942, -0.0963 0.588 2.3983, -0.1086 0.588 2.4054, -0.1183 0.588 2.4147, -0.1251 0.588 2.4253, -0.1293 0.588 2.4377, -0.131 0.588 2.4535, -0.1301 0.588 2.4646, -0.1269 0.588 2.4762, -0.1215 0.588 2.4864, -0.1131 0.588 2.4956, -0.113 0.588 2.4958, -0.1001 0.588 2.5044, -0.0863 0.588 2.5092, -0.0692 0.588 2.511, -0.0359 0.588 2.511, -0.0692 0.588 2.4981, -0.0518 0.588 2.4981, -0.0518 0.588 2.4059, -0.0685 0.588 2.4059, -0.1151 0.588 2.4531, -0.1141 0.588 2.4407, -0.1106 0.588 2.4296, -0.1056 0.588 2.4215, -0.099 0.588 2.4149, -0.0909 0.588 2.4102, -0.081 0.588 2.4071, -0.0832 0.588 2.4966, -0.0929 0.588 2.4932, -0.1015 0.588 2.4876, -0.1073 0.588 2.4815, -0.1114 0.588 2.4742, -0.1141 0.588 2.4649
            ]
        }
        coordIndex [
            0,1,2,-1,2,1,3,-1,2,3,4,-1,4,3,5,-1,4,5,6,-1,6,5,7,-1,6,7,8,-1,8,7,9,-1,8,9,10,-1,10,9,11,-1,10,11,12,-1,12,11,13,-1,12,13,14,-1,14,13,15,-1,14,15,16,-1,16,15,17,-1,16,17,18,-1,18,17,19,-1,18,19,20,-1,20,19,21,-1,20,21,22,-1,22,21,23,-1,22,23,24,-1,24,23,25,-1,24,25,26,-1,26,25,27,-1,26,27,28,-1,28,27,29,-1,28,29,30,-1,30,29,31,-1,30,31,32,-1,32,31,33,-1,32,33,34,-1,34,33,0,-1,34,0,2,-1,17,15,35,-1,35,15,36,-1,17,35,37,-1,17,37,19,-1,19,37,38,-1,19,38,21,-1,21,38,39,-1,21,39,23,-1,23,39,40,-1,23,40,25,-1,25,40,41,-1,25,41,27,-1,27,41,42,-1,27,42,29,-1,29,42,43,-1,29,43,31,-1,31,43,44,-1,31,44,33,-1,33,44,45,-1,33,45,0,-1,0,45,46,-1,0,46,1,-1,1,46,47,-1,1,47,3,-1,3,47,48,-1,3,48,5,-1,5,48,49,-1,5,49,7,-1,7,49,50,-1,7,50,9,-1,9,50,51,-1,9,51,11,-1,13,11,52,-1,52,11,51,-1,15,13,36,-1,36,13,52,-1,10,12,53,-1,53,12,54,-1,12,14,54,-1,54,14,55,-1,14,16,55,-1,55,16,56,-1,30,57,58,-1,30,58,28,-1,28,58,59,-1,28,59,26,-1,26,59,60,-1,26,60,24,-1,24,60,61,-1,24,61,22,-1,22,61,62,-1,22,62,20,-1,20,62,63,-1,20,63,18,-1,18,63,56,-1,18,56,16,-1,10,53,64,-1,10,64,8,-1,8,64,65,-1,8,65,6,-1,6,65,66,-1,6,66,4,-1,4,66,67,-1,4,67,2,-1,2,67,68,-1,2,68,34,-1,34,68,69,-1,34,69,32,-1,32,69,57,-1,32,57,30,-1,
        ]
    }
}
Shape{
    appearance Appearance {
        material  Material {
            diffuseColor 0.5019607843137255 0.5019607843137255 0.5019607843137255
            specularColor 0.25098039215686274 0.25098039215686274 0.25098039215686274
            ambientIntensity 0.502
            transparency 0.0
            shininess 0.5
        }
    }
    geometry IndexedFaceSet {
        ccw TRUE
        solid FALSE
        coord DEF co Coordinate {
            point [
                -0.0518 0.588 2.4981, -0.0518 0.588 2.4059, -0.0692 0.588 2.4981, -0.0685 0.588 2.4059, -0.081 0.588 2.4071, -0.1151 0.588 2.4531, -0.1141 0.588 2.4649, -0.1114 0.588 2.4742, -0.0832 0.588 2.4966, -0.0909 0.588 2.4102, -0.099 0.588 2.4149, -0.1056 0.588 2.4215, -0.1106 0.588 2.4296, -0.1141 0.588 2.4407, -0.1073 0.588 2.4815, -0.1015 0.588 2.4876, -0.0929 0.588 2.4932
            ]
        }
        coordIndex [
            0,1,2,-1,2,1,3,-1,2,3,4,-1,5,6,2,-1,2,6,7,-1,2,7,8,-1,4,9,2,-1,2,9,10,-1,2,10,11,-1,11,12,2,-1,2,12,13,-1,2,13,5,-1,14,15,7,-1,7,15,16,-1,7,16,8,-1,
        ]
    }
}
Shape{
    appearance Appearance {
        material  Material {
            diffuseColor 0.7529411764705882 0.7529411764705882 0.7529411764705882
            specularColor 0.3764705882352941 0.3764705882352941 0.3764705882352941
            ambientIntensity 0.7529
            transparency 0.0
            shininess 0.5
        }
    }
    geometry IndexedFaceSet {
        ccw TRUE
        solid FALSE
        coord DEF co Coordinate {
            point [
                -0.0129 0.5919 2.4059, -0.0129 0.5919 2.3929, -0.0129 0.588 2.4059, -0.0129 0.588 2.3929, 0.0347 0.5919 2.4059, 0.0347 0.588 2.4059, 0.0347 0.5919 2.4462, 0.0347 0.588 2.4462, -0.0071 0.5919 2.4462, -0.0071 0.588 2.4462, -0.0071 0.5919 2.4592, -0.0071 0.588 2.4592, 0.0347 0.5919 2.4592, 0.0347 0.588 2.4592, 0.0347 0.5919 2.4981, 0.0347 0.588 2.4981, -0.01 0.5919 2.4981, -0.01 0.588 2.4981, -0.01 0.5919 2.511, -0.01 0.588 2.511, 0.0505 0.5919 2.511, 0.0505 0.588 2.511, 0.0505 0.5919 2.3929, 0.0505 0.588 2.3929, 0.0736 0.5919 2.412, 0.0736 0.5919 2.3991, 0.0736 0.588 2.412, 0.0736 0.588 2.3991, 0.0757 0.588 2.4108, 0.0757 0.5919 2.4108, 0.0882 0.588 2.4062, 0.0882 0.5919 2.4062, 0.1039 0.588 2.4045, 0.1039 0.5919 2.4045, 0.1149 0.588 2.4057, 0.1149 0.5919 2.4057, 0.1235 0.588 2.4089, 0.1235 0.5919 2.4089, 0.1307 0.588 2.4137, 0.1307 0.5919 2.4137, 0.1363 0.588 2.4196, 0.1363 0.5919 2.4196, 0.1412 0.588 2.4278, 0.1412 0.5919 2.4278, 0.1444 0.588 2.4379, 0.1444 0.5919 2.4379, 0.1456 0.588 2.4507, 0.1456 0.5919 2.4507, 0.145 0.588 2.4599, 0.145 0.5919 2.4599, 0.1419 0.588 2.4726, 0.1419 0.5919 2.4726, 0.137 0.588 2.4817, 0.137 0.5919 2.4817, 0.1299 0.588 2.4896, 0.1299 0.5919 2.4896, 0.1217 0.588 2.495, 0.1217 0.5919 2.495, 0.1128 0.588 2.4982, 0.1128 0.5919 2.4982, 0.1012 0.588 2.4995, 0.1012 0.5919 2.4995, 0.0869 0.588 2.4977, 0.0869 0.5919 2.4977, 0.0736 0.588 2.492, 0.0736 0.5919 2.492, 0.0736 0.5919 2.5078, 0.0736 0.588 2.5078, 0.0872 0.588 2.5115, 0.0872 0.5919 2.5115, 0.1013 0.588 2.5125, 0.1013 0.5919 2.5125, 0.1132 0.588 2.5115, 0.1132 0.5919 2.5115, 0.1264 0.588 2.5077, 0.1264 0.5919 2.5077, 0.1376 0.588 2.5012, 0.1376 0.5919 2.5012, 0.1483 0.588 2.491, 0.1483 0.5919 2.491, 0.1552 0.588 2.4799, 0.1552 0.5919 2.4799, 0.1597 0.588 2.4666, 0.1597 0.5919 2.4666, 0.1614 0.588 2.4498, 0.1614 0.5919 2.4498, 0.1603 0.588 2.4361, 0.1603 0.5919 2.4361, 0.1567 0.588 2.4236, 0.1567 0.5919 2.4236, 0.1504 0.588 2.4124, 0.1504 0.5919 2.4124, 0.1416 0.588 2.403, 0.1416 0.5919 2.403, 0.1321 0.588 2.3969, 0.1321 0.5919 2.3969, 0.1206 0.588 2.393, 0.1206 0.5919 2.393, 0.1061 0.5919 2.3915, 0.113 0.588 2.3922, 0.1061 0.588 2.3915, 0.0861 0.5919 2.3939, 0.1028 0.588 2.3916, 0.1028 0.5919 2.3916, 0.0981 0.588 2.3922, 0.0861 0.588 2.3939, 0.1715 0.5919 2.4059, 0.1715 0.5919 2.3929, 0.1715 0.588 2.4059, 0.1715 0.588 2.3929, 0.2161 0.5919 2.4059, 0.2161 0.588 2.4059, 0.2161 0.5919 2.511, 0.2161 0.588 2.511, 0.232 0.5919 2.511, 0.232 0.588 2.511, 0.232 0.5919 2.3929, 0.232 0.588 2.3929
            ]
        }
        coordIndex [
            0,1,2,-1,2,1,3,-1,4,0,5,-1,5,0,2,-1,6,4,7,-1,7,4,5,-1,8,6,9,-1,9,6,7,-1,10,8,11,-1,11,8,9,-1,12,10,13,-1,13,10,11,-1,14,12,15,-1,15,12,13,-1,16,14,17,-1,17,14,15,-1,18,16,19,-1,19,16,17,-1,20,18,21,-1,21,18,19,-1,22,20,23,-1,23,20,21,-1,1,22,3,-1,3,22,23,-1,22,1,0,-1,0,4,22,-1,22,4,6,-1,22,6,20,-1,16,18,14,-1,14,18,20,-1,14,20,12,-1,12,20,6,-1,12,6,10,-1,10,6,8,-1,24,25,26,-1,26,25,27,-1,24,26,28,-1,24,28,29,-1,29,28,30,-1,29,30,31,-1,31,30,32,-1,31,32,33,-1,33,32,34,-1,33,34,35,-1,35,34,36,-1,35,36,37,-1,37,36,38,-1,37,38,39,-1,39,38,40,-1,39,40,41,-1,41,40,42,-1,41,42,43,-1,43,42,44,-1,43,44,45,-1,45,44,46,-1,45,46,47,-1,47,46,48,-1,47,48,49,-1,49,48,50,-1,49,50,51,-1,51,50,52,-1,51,52,53,-1,53,52,54,-1,53,54,55,-1,55,54,56,-1,55,56,57,-1,57,56,58,-1,57,58,59,-1,59,58,60,-1,59,60,61,-1,61,60,62,-1,61,62,63,-1,63,62,64,-1,63,64,65,-1,66,65,67,-1,67,65,64,-1,66,67,68,-1,66,68,69,-1,69,68,70,-1,69,70,71,-1,71,70,72,-1,71,72,73,-1,73,72,74,-1,73,74,75,-1,75,74,76,-1,75,76,77,-1,77,76,78,-1,77,78,79,-1,79,78,80,-1,79,80,81,-1,81,80,82,-1,81,82,83,-1,83,82,84,-1,83,84,85,-1,85,84,86,-1,85,86,87,-1,87,86,88,-1,87,88,89,-1,89,88,90,-1,89,90,91,-1,91,90,92,-1,91,92,93,-1,93,92,94,-1,93,94,95,-1,95,94,96,-1,95,96,97,-1,97,96,98,-1,98,96,99,-1,98,99,100,-1,27,25,101,-1,98,100,102,-1,98,102,103,-1,103,102,104,-1,103,104,101,-1,101,104,105,-1,101,105,27,-1,35,98,33,-1,33,98,103,-1,33,103,31,-1,31,103,101,-1,31,101,29,-1,29,101,25,-1,29,25,24,-1,65,66,63,-1,63,66,69,-1,63,69,61,-1,61,69,71,-1,61,71,59,-1,59,71,73,-1,59,73,57,-1,57,73,75,-1,57,75,55,-1,55,75,77,-1,55,77,53,-1,53,77,79,-1,53,79,51,-1,51,79,81,-1,51,81,49,-1,49,81,83,-1,49,83,47,-1,47,83,85,-1,47,85,45,-1,45,85,87,-1,45,87,43,-1,43,87,89,-1,43,89,41,-1,41,89,91,-1,41,91,39,-1,39,91,93,-1,39,93,37,-1,37,93,95,-1,37,95,35,-1,35,95,97,-1,35,97,98,-1,106,107,108,-1,108,107,109,-1,110,106,111,-1,111,106,108,-1,112,110,113,-1,113,110,111,-1,114,112,115,-1,115,112,113,-1,116,114,117,-1,117,114,115,-1,107,116,109,-1,109,116,117,-1,112,114,110,-1,110,114,116,-1,110,116,106,-1,106,116,107,-1,
        ]
    }
}
Shape{
    appearance Appearance {
        material  Material {
            diffuseColor 0.5019607843137255 0.5019607843137255 0.5019607843137255
            specularColor 0.25098039215686274 0.25098039215686274 0.25098039215686274
            ambientIntensity 0.502
            transparency 0.0
            shininess 0.5
        }
    }
    geometry IndexedFaceSet {
        ccw TRUE
        solid FALSE
        coord DEF co Coordinate {
            point [
                0.7829 -0.599 2.2727, 0.7829 -0.5995 2.2638, 0.7875 -0.5144 2.2638, 0.7776 -0.6315 2.2638, 0.7517 -0.7462 2.2638, 0.7691 -0.6836 2.2638, 0.7691 -0.6827 2.2815, 0.6497 -0.9573 2.2638, 0.6748 -0.9203 2.2638, 0.6748 -0.9181 2.3062, 0.577 -1.0497 2.2638, 0.6269 -0.9909 2.2638, 0.6269 -0.9883 2.3136, 0.3933 -1.1954 2.2638, 0.442 -1.1661 2.2638, 0.442 -1.1625 2.3319, 0.1751 -1.2809 2.2638, 0.2107 -1.2731 2.2638, 0.2107 -1.2689 2.3431, -0.7145 -0.8432 2.2983, -0.7461 -0.7644 2.2901, -0.7461 -0.7658 2.2638, -0.7689 -0.6276 2.3896, -0.7827 -0.5713 2.327, -0.7827 -0.5776 2.3207, -0.7873 -0.5144 2.2638, -0.7827 -0.5995 2.2638, -0.7827 -0.599 2.2727, -0.7827 -0.5644 2.3327, -0.7689 -0.6139 2.4007, -0.7461 -0.6621 2.4672, -0.7827 -0.5569 2.3375, -0.7827 -0.5921 2.2984, -0.7689 -0.669 2.3326, -0.7689 -0.6609 2.3484, -0.7689 -0.6827 2.2815, -0.7827 -0.5976 2.2815, -0.7689 -0.599 2.4104, -0.7461 -0.6401 2.4815, -0.7145 -0.6797 2.5501, -0.7827 -0.549 2.3416, -0.7461 -0.7321 2.3895, -0.7461 -0.7178 2.4116, -0.7774 -0.6315 2.2638, -0.7689 -0.6836 2.2638, -0.7515 -0.7462 2.2638, -0.7689 -0.5832 2.4184, -0.7461 -0.6166 2.4935, -0.7145 -0.6488 2.5658, -0.6746 -0.6795 2.6346, -0.7827 -0.5407 2.3447, -0.7145 -0.7818 2.4581, -0.7145 -0.7601 2.485, -0.7689 -0.5667 2.4248, -0.7461 -0.592 2.5029, -0.7145 -0.6165 2.5782, -0.6746 -0.6398 2.6499, -0.6268 -0.6616 2.717, -0.7827 -0.5321 2.3471, -0.6746 -0.816 2.5354, -0.6746 -0.786 2.5655, -0.7689 -0.5495 2.4293, -0.7461 -0.5666 2.5097, -0.7145 -0.5831 2.5872, -0.6746 -0.5988 2.6609, -0.6268 -0.6134 2.7299, -0.5716 -0.6269 2.7934, -0.7827 -0.5233 2.3484, -0.6268 -0.8332 2.6179, -0.6268 -0.7944 2.6493, -0.7145 -0.845 2.2638, -0.7088 -0.8557 2.2638, -0.6746 -0.9181 2.3062, -0.6746 -0.9203 2.2638, -0.6268 -0.9883 2.3136, -0.6495 -0.9573 2.2638, -0.7689 -0.5321 2.4321, -0.7461 -0.5406 2.5138, -0.7145 -0.5489 2.5926, -0.6746 -0.5568 2.6675, -0.6268 -0.5642 2.7377, -0.5716 -0.571 2.8023, -0.5097 -0.5771 2.8606, -0.7827 -0.5144 2.3489, -0.5716 -0.8326 2.7019, -0.5716 -0.7851 2.7327, -0.6268 -0.9909 2.2638, -0.5768 -1.0497 2.2638, -0.5716 -1.0529 2.3204, -0.5716 -1.0559 2.2638, -0.5097 -1.1112 2.3265, -0.7689 -0.5144 2.433, -0.7461 -0.5144 2.5152, -0.7145 -0.5144 2.5944, -0.6746 -0.5144 2.6697, -0.6268 -0.5144 2.7403, -0.5716 -0.5144 2.8053, -0.5097 -0.5144 2.8639, -0.4418 -0.5144 2.9155, -0.5097 -0.8144 2.7835, -0.5097 -0.7585 2.812, -0.4418 -0.7794 2.8592, -0.4418 -0.7158 2.8836, -0.5097 -1.1145 2.2638, -0.4903 -1.1292 2.2638, -0.4418 -1.1625 2.3319, -0.2914 -0.5144 2.9953, -0.3687 -0.5144 2.9595, -0.3687 -0.5871 2.9556, -0.4418 -0.5825 2.9119, -0.4418 -0.6499 2.9013, -0.5097 -0.6391 2.8508, -0.5097 -0.6998 2.8345, -0.5716 -0.6817 2.7788, -0.5716 -0.7346 2.7585, -0.6268 -0.7082 2.6991, -0.6268 -0.7526 2.6765, -0.6746 -0.7173 2.6153, -0.6746 -0.753 2.5922, -0.7145 -0.7087 2.5313, -0.7145 -0.7356 2.5095, -0.7461 -0.6826 2.4506, -0.7461 -0.7012 2.432, -0.7689 -0.6401 2.377, -0.7689 -0.6513 2.3633, -0.7827 -0.5832 2.3138, -0.7827 -0.5881 2.3063, -0.3687 -0.7293 2.9254, -0.3687 -0.659 2.9443, -0.4418 -1.1661 2.2638, -0.3931 -1.1954 2.2638, -0.3687 -1.2062 2.3365, -0.3687 -1.21 2.2638, -0.2914 -1.2418 2.3402, -0.2914 -0.6664 2.9793, -0.2914 -0.5908 2.9912, -0.2106 -0.5937 3.0183, -0.2106 -0.5144 3.0225, -0.2914 -1.2458 2.2638, -0.2875 -1.2471 2.2638, -0.2106 -1.2689 2.3431, -0.2106 -1.2731 2.2638, -0.1749 -1.2809 2.2638, -0.1273 -1.2871 2.345, -0.1273 -1.2914 2.2638, -0.0587 -1.2988 2.2638, -0.0425 -1.2963 2.346, -0.0425 -1.3006 2.2638, 0.0427 -1.2963 2.346, -0.7689 -0.6799 2.299, -0.7461 -0.7603 2.3161, -0.7145 -0.8378 2.3325, -0.6746 -0.9114 2.3482, -0.6268 -0.9805 2.3629, -0.5716 -1.044 2.3764, -0.5097 -1.1014 2.3886, -0.4418 -1.1518 2.3993, -0.3687 -1.1948 2.4084, -0.2914 -1.2299 2.4159, -0.2106 -1.2565 2.4215, -0.1273 -1.2744 2.4253, -0.0425 -1.2834 2.4272, 0.0427 -1.2834 2.4272, 0.1275 -1.2744 2.4253, 0.1275 -1.2871 2.345, 0.2107 -1.2565 2.4215, -0.7827 -0.5953 2.2901, 0.1275 -1.2914 2.2638, 0.0589 -1.2988 2.2638, 0.0427 -1.3006 2.2638, -0.7689 -0.6753 2.3161, -0.7461 -0.7535 2.3415, -0.7145 -0.8288 2.3659, -0.6746 -0.9004 2.3892, -0.6268 -0.9675 2.411, -0.5716 -1.0293 2.4311, -0.5097 -1.0851 2.4492, -0.4418 -1.1342 2.4652, -0.3687 -1.176 2.4788, -0.2914 -1.21 2.4898, -0.2106 -1.2359 2.4982, -0.1273 -1.2534 2.5039, -0.0425 -1.2621 2.5067, 0.0427 -1.2621 2.5067, 0.1275 -1.2534 2.5039, 0.2107 -1.2359 2.4982, 0.2915 -1.21 2.4898, -0.7461 -0.744 2.366, -0.7145 -0.8164 2.3983, -0.6746 -0.8852 2.4289, -0.6268 -0.9497 2.4576, -0.5716 -1.009 2.484, -0.5097 -1.0626 2.5079, -0.4418 -1.1097 2.5289, -0.3687 -1.1499 2.5467, -0.2914 -1.1826 2.5613, -0.2106 -1.2075 2.5724, -0.1273 -1.2242 2.5798, -0.0425 -1.2326 2.5836, 0.0427 -1.2326 2.5836, 0.1275 -1.2242 2.5798, 0.2107 -1.2075 2.5724, 0.2915 -1.1826 2.5613, 0.3689 -1.1499 2.5467, -0.7145 -0.8007 2.4291, -0.6746 -0.8659 2.4668, -0.6268 -0.927 2.502, -0.5716 -0.9833 2.5345, -0.5097 -1.0341 2.5638, -0.4418 -1.0788 2.5896, -0.3687 -1.1168 2.6116, -0.2914 -1.1478 2.6295, -0.2106 -1.1714 2.6431, -0.1273 -1.1873 2.6523, -0.0425 -1.1953 2.6569, 0.0427 -1.1953 2.6569, 0.1275 -1.1873 2.6523, 0.2107 -1.1714 2.6431, 0.2915 -1.1478 2.6295, 0.3689 -1.1168 2.6116, 0.442 -1.0788 2.5896, 0.2915 -1.2458 2.2638, 0.3689 -1.21 2.2638, 0.3689 -1.2062 2.3365, -0.6746 -0.8428 2.5024, -0.6268 -0.8999 2.5439, -0.5716 -0.9524 2.5821, -0.5097 -0.9999 2.6165, -0.4418 -1.0416 2.6469, -0.3687 -1.0772 2.6727, -0.2914 -1.1061 2.6937, -0.2106 -1.1282 2.7097, -0.1273 -1.143 2.7205, -0.0425 -1.1504 2.7259, 0.0427 -1.1504 2.7259, 0.1275 -1.143 2.7205, 0.2107 -1.1282 2.7097, 0.2915 -1.1061 2.6937, 0.3689 -1.0772 2.6727, 0.442 -1.0416 2.6469, 0.5098 -0.9999 2.6165, -0.6268 -0.8685 2.5826, -0.5716 -0.9168 2.6261, -0.5097 -0.9603 2.6653, -0.4418 -0.9987 2.6999, -0.3687 -1.0313 2.7293, -0.2914 -1.058 2.7532, -0.2106 -1.0782 2.7714, -0.1273 -1.0918 2.7837, -0.0425 -1.0987 2.7899, 0.0427 -1.0987 2.7899, 0.1275 -1.0918 2.7837, 0.2107 -1.0782 2.7714, 0.2915 -1.058 2.7532, 0.3689 -1.0313 2.7293, 0.442 -0.9987 2.6999, 0.5098 -0.9603 2.6653, 0.5717 -0.9168 2.6261, -0.5716 -0.8767 2.6662, -0.5097 -0.9159 2.7098, -0.4418 -0.9504 2.7481, -0.3687 -0.9799 2.7808, -0.2914 -1.0038 2.8074, -0.2106 -1.022 2.8276, -0.1273 -1.0343 2.8412, -0.0425 -1.0405 2.8481, 0.0427 -1.0405 2.8481, 0.1275 -1.0343 2.8412, 0.2107 -1.022 2.8276, 0.2915 -1.0038 2.8074, 0.3689 -0.9799 2.7808, 0.442 -0.9504 2.7481, 0.5098 -0.9159 2.7098, 0.5717 -0.8767 2.6662, 0.6269 -0.8332 2.6179, 0.5098 -1.1145 2.2638, 0.5717 -1.0559 2.2638, 0.5717 -1.0529 2.3204, -0.5097 -0.8671 2.7493, -0.4418 -0.8974 2.791, -0.3687 -0.9233 2.8266, -0.2914 -0.9443 2.8556, -0.2106 -0.9603 2.8776, -0.1273 -0.9711 2.8924, -0.0425 -0.9765 2.8999, 0.0427 -0.9765 2.8999, 0.1275 -0.9711 2.8924, 0.2107 -0.9603 2.8776, 0.2915 -0.9443 2.8556, 0.3689 -0.9233 2.8266, 0.442 -0.8974 2.791, 0.5098 -0.8671 2.7493, 0.5717 -0.8326 2.7019, 0.6269 -0.7944 2.6493, 0.6748 -0.753 2.5922, -0.4418 -0.8402 2.8282, -0.3687 -0.8622 2.8663, -0.2914 -0.8801 2.8973, -0.2106 -0.8937 2.9208, -0.1273 -0.9029 2.9367, -0.0425 -0.9075 2.9447, 0.0427 -0.9075 2.9447, 0.1275 -0.9029 2.9367, 0.2107 -0.8937 2.9208, 0.2915 -0.8801 2.8973, 0.3689 -0.8622 2.8663, 0.442 -0.8402 2.8282, 0.5098 -0.8144 2.7835, 0.5717 -0.7851 2.7327, 0.6269 -0.7526 2.6765, 0.6748 -0.7173 2.6153, 0.7147 -0.6797 2.5501, -0.3687 -0.7973 2.8993, -0.2914 -0.8119 2.932, -0.2106 -0.8229 2.9569, -0.1273 -0.8304 2.9736, -0.0425 -0.8342 2.9821, 0.0427 -0.8342 2.9821, 0.1275 -0.8304 2.9736, 0.2107 -0.8229 2.9569, 0.2915 -0.8119 2.932, 0.3689 -0.7973 2.8993, 0.442 -0.7794 2.8592, 0.5098 -0.7585 2.812, 0.5717 -0.7346 2.7585, 0.6269 -0.7082 2.6991, 0.6748 -0.6795 2.6346, 0.7147 -0.6488 2.5658, 0.7463 -0.6166 2.4935, -0.2914 -0.7404 2.9595, -0.2106 -0.7488 2.9853, -0.1273 -0.7545 3.0028, -0.0425 -0.7573 3.0115, 0.0427 -0.7573 3.0115, 0.1275 -0.7545 3.0028, 0.2107 -0.7488 2.9853, 0.2915 -0.7404 2.9595, 0.3689 -0.7293 2.9254, 0.442 -0.7158 2.8836, 0.5098 -0.6998 2.8345, 0.5717 -0.6817 2.7788, 0.6269 -0.6616 2.717, 0.6748 -0.6398 2.6499, 0.7147 -0.6165 2.5782, 0.7463 -0.592 2.5029, 0.7691 -0.5667 2.4248, 0.7147 -0.845 2.2638, 0.7463 -0.7658 2.2638, 0.7463 -0.7644 2.2901, -0.2106 -0.6721 3.0059, -0.1273 -0.6759 3.0238, -0.0425 -0.6778 3.0328, 0.0427 -0.6778 3.0328, 0.1275 -0.6759 3.0238, 0.2107 -0.6721 3.0059, 0.2915 -0.6664 2.9793, 0.3689 -0.659 2.9443, 0.442 -0.6499 2.9013, 0.5098 -0.6391 2.8508, 0.5717 -0.6269 2.7934, 0.6269 -0.6134 2.7299, 0.6748 -0.5988 2.6609, 0.7147 -0.5831 2.5872, 0.7463 -0.5666 2.5097, 0.7691 -0.5495 2.4293, 0.7829 -0.5321 2.3471, -0.1273 -0.5144 3.0408, -0.1273 -0.5956 3.0366, -0.0425 -0.5144 3.05, -0.0425 -0.5965 3.0457, 0.0427 -0.5144 3.05, 0.0427 -0.5965 3.0457, 0.1275 -0.5144 3.0408, 0.1275 -0.5956 3.0366, 0.2107 -0.5144 3.0225, 0.2107 -0.5937 3.0183, 0.2915 -0.5144 2.9953, 0.2915 -0.5908 2.9912, 0.3689 -0.5144 2.9595, 0.3689 -0.5871 2.9556, 0.442 -0.5144 2.9155, 0.442 -0.5825 2.9119, 0.5098 -0.5144 2.8639, 0.5098 -0.5771 2.8606, 0.5717 -0.5144 2.8053, 0.5717 -0.571 2.8023, 0.6269 -0.5144 2.7403, 0.6269 -0.5642 2.7377, 0.6748 -0.5144 2.6697, 0.6748 -0.5568 2.6675, 0.7147 -0.5144 2.5944, 0.7147 -0.5489 2.5926, 0.7463 -0.5144 2.5152, 0.7463 -0.5406 2.5138, 0.7691 -0.5144 2.433, 0.7691 -0.5321 2.4321, 0.7829 -0.5144 2.3489, 0.7829 -0.5233 2.3484, 0.2915 -1.2299 2.4159, 0.3689 -1.176 2.4788, 0.442 -1.1097 2.5289, 0.5098 -1.0341 2.5638, 0.5717 -0.9524 2.5821, 0.6269 -0.8685 2.5826, 0.6748 -0.786 2.5655, 0.7147 -0.7087 2.5313, 0.7463 -0.6401 2.4815, 0.7691 -0.5832 2.4184, 0.7829 -0.5407 2.3447, 0.2877 -1.2471 2.2638, 0.2915 -1.2418 2.3402, 0.3689 -1.1948 2.4084, 0.442 -1.1342 2.4652, 0.5098 -1.0626 2.5079, 0.5717 -0.9833 2.5345, 0.6269 -0.8999 2.5439, 0.6748 -0.816 2.5354, 0.7147 -0.7356 2.5095, 0.7463 -0.6621 2.4672, 0.7691 -0.599 2.4104, 0.7829 -0.549 2.3416, 0.442 -1.1518 2.3993, 0.5098 -1.0851 2.4492, 0.5717 -1.009 2.484, 0.6269 -0.927 2.502, 0.6748 -0.8428 2.5024, 0.7147 -0.7601 2.485, 0.7463 -0.6826 2.4506, 0.7691 -0.6139 2.4007, 0.7829 -0.5569 2.3375, 0.5098 -1.1014 2.3886, 0.5717 -1.0293 2.4311, 0.6269 -0.9497 2.4576, 0.6748 -0.8659 2.4668, 0.7147 -0.7818 2.4581, 0.7463 -0.7012 2.432, 0.7691 -0.6276 2.3896, 0.7829 -0.5644 2.3327, 0.4905 -1.1292 2.2638, 0.5098 -1.1112 2.3265, 0.5717 -1.044 2.3764, 0.6269 -0.9675 2.411, 0.6748 -0.8852 2.4289, 0.7147 -0.8007 2.4291, 0.7463 -0.7178 2.4116, 0.7691 -0.6401 2.377, 0.7829 -0.5713 2.327, 0.6269 -0.9805 2.3629, 0.6748 -0.9004 2.3892, 0.7147 -0.8164 2.3983, 0.7463 -0.7321 2.3895, 0.7691 -0.6513 2.3633, 0.7829 -0.5776 2.3207, 0.6748 -0.9114 2.3482, 0.7147 -0.8288 2.3659, 0.7463 -0.744 2.366, 0.7691 -0.6609 2.3484, 0.7829 -0.5832 2.3138, 0.7147 -0.8378 2.3325, 0.7463 -0.7535 2.3415, 0.7691 -0.669 2.3326, 0.7829 -0.5881 2.3063, 0.709 -0.8557 2.2638, 0.7147 -0.8432 2.2983, 0.7463 -0.7603 2.3161, 0.7691 -0.6753 2.3161, 0.7829 -0.5921 2.2984, 0.7691 -0.6799 2.299, 0.7829 -0.5953 2.2901, 0.7829 -0.5976 2.2815, 0.7875 -0.5144 0.5906, 0.7787 -0.6317 0.5906, 0.7525 -0.7464 0.5906, 0.7095 -0.856 0.5906, 0.6507 -0.9579 0.5906, 0.5773 -1.0499 0.5906, 0.491 -1.13 0.5906, 0.3938 -1.1963 0.5906, 0.2878 -1.2473 0.5906, 0.1753 -1.282 0.5906, 0.0589 -1.2996 0.5906, -0.0587 -1.2996 0.5906, -0.1751 -1.282 0.5906, -0.2876 -1.2473 0.5906, -0.3936 -1.1963 0.5906, -0.4908 -1.13 0.5906, -0.5771 -1.0499 0.5906, -0.6505 -0.9579 0.5906, -0.7093 -0.856 0.5906, -0.7523 -0.7464 0.5906, -0.7785 -0.6317 0.5906, -0.7873 -0.5144 0.5906
            ]
        }
        coordIndex [
            0,1,2,-1,1,0,3,-1,4,5,6,-1,7,8,9,-1,10,11,12,-1,13,14,15,-1,16,17,18,-1,19,20,21,-1,22,23,24,-1,25,26,27,-1,24,23,25,-1,28,25,23,-1,28,23,29,-1,29,23,22,-1,29,22,30,-1,31,25,28,-1,32,33,34,-1,27,26,35,-1,36,25,27,-1,31,28,37,-1,37,28,29,-1,37,29,38,-1,38,29,30,-1,38,30,39,-1,40,25,31,-1,34,41,42,-1,26,43,35,-1,35,43,44,-1,35,44,20,-1,20,44,45,-1,20,45,21,-1,40,31,46,-1,46,31,37,-1,46,37,47,-1,47,37,38,-1,47,38,48,-1,48,38,39,-1,48,39,49,-1,50,25,40,-1,42,51,52,-1,50,40,53,-1,53,40,46,-1,53,46,54,-1,54,46,47,-1,54,47,55,-1,55,47,48,-1,55,48,56,-1,56,48,49,-1,56,49,57,-1,58,25,50,-1,52,59,60,-1,58,50,61,-1,61,50,53,-1,61,53,62,-1,62,53,54,-1,62,54,63,-1,63,54,55,-1,63,55,64,-1,64,55,56,-1,64,56,65,-1,65,56,57,-1,65,57,66,-1,67,25,58,-1,60,68,69,-1,21,70,19,-1,19,70,71,-1,19,71,72,-1,72,71,73,-1,72,73,74,-1,74,73,75,-1,67,58,76,-1,76,58,61,-1,76,61,77,-1,77,61,62,-1,77,62,78,-1,78,62,63,-1,78,63,79,-1,79,63,64,-1,79,64,80,-1,80,64,65,-1,80,65,81,-1,81,65,66,-1,81,66,82,-1,83,25,67,-1,69,84,85,-1,75,86,74,-1,74,86,87,-1,74,87,88,-1,88,87,89,-1,88,89,90,-1,83,67,91,-1,91,67,76,-1,91,76,92,-1,92,76,77,-1,92,77,93,-1,93,77,78,-1,93,78,94,-1,94,78,79,-1,94,79,95,-1,95,79,80,-1,95,80,96,-1,96,80,81,-1,96,81,97,-1,97,81,82,-1,97,82,98,-1,85,99,100,-1,100,101,102,-1,89,103,90,-1,90,103,104,-1,90,104,105,-1,106,107,108,-1,108,107,109,-1,108,109,110,-1,110,109,111,-1,110,111,112,-1,112,111,113,-1,112,113,114,-1,114,113,115,-1,114,115,116,-1,116,115,117,-1,116,117,118,-1,118,117,119,-1,118,119,120,-1,120,119,121,-1,120,121,122,-1,122,121,123,-1,122,123,124,-1,124,123,125,-1,124,125,126,-1,126,125,25,-1,102,127,128,-1,104,129,105,-1,105,129,130,-1,105,130,131,-1,131,130,132,-1,131,132,133,-1,128,134,135,-1,135,136,137,-1,132,138,133,-1,133,138,139,-1,133,139,140,-1,139,141,140,-1,140,141,142,-1,140,142,143,-1,142,144,143,-1,143,144,145,-1,143,145,146,-1,146,145,147,-1,146,147,148,-1,36,27,149,-1,149,27,35,-1,149,35,150,-1,150,35,20,-1,150,20,151,-1,151,20,19,-1,151,19,152,-1,152,19,72,-1,152,72,153,-1,153,72,74,-1,153,74,154,-1,154,74,88,-1,154,88,155,-1,155,88,90,-1,155,90,156,-1,156,90,105,-1,156,105,157,-1,157,105,131,-1,157,131,158,-1,158,131,133,-1,158,133,159,-1,159,133,140,-1,159,140,160,-1,160,140,143,-1,160,143,161,-1,161,143,146,-1,161,146,162,-1,162,146,148,-1,162,148,163,-1,163,148,164,-1,163,164,165,-1,166,25,36,-1,167,164,168,-1,168,164,148,-1,168,148,169,-1,169,148,147,-1,166,36,170,-1,170,36,149,-1,170,149,171,-1,171,149,150,-1,171,150,172,-1,172,150,151,-1,172,151,173,-1,173,151,152,-1,173,152,174,-1,174,152,153,-1,174,153,175,-1,175,153,154,-1,175,154,176,-1,176,154,155,-1,176,155,177,-1,177,155,156,-1,177,156,178,-1,178,156,157,-1,178,157,179,-1,179,157,158,-1,179,158,180,-1,180,158,159,-1,180,159,181,-1,181,159,160,-1,181,160,182,-1,182,160,161,-1,182,161,183,-1,183,161,162,-1,183,162,184,-1,184,162,163,-1,184,163,185,-1,185,163,165,-1,185,165,186,-1,32,25,166,-1,32,166,33,-1,33,166,170,-1,33,170,187,-1,187,170,171,-1,187,171,188,-1,188,171,172,-1,188,172,189,-1,189,172,173,-1,189,173,190,-1,190,173,174,-1,190,174,191,-1,191,174,175,-1,191,175,192,-1,192,175,176,-1,192,176,193,-1,193,176,177,-1,193,177,194,-1,194,177,178,-1,194,178,195,-1,195,178,179,-1,195,179,196,-1,196,179,180,-1,196,180,197,-1,197,180,181,-1,197,181,198,-1,198,181,182,-1,198,182,199,-1,199,182,183,-1,199,183,200,-1,200,183,184,-1,200,184,201,-1,201,184,185,-1,201,185,202,-1,202,185,186,-1,202,186,203,-1,34,33,41,-1,41,33,187,-1,41,187,204,-1,204,187,188,-1,204,188,205,-1,205,188,189,-1,205,189,206,-1,206,189,190,-1,206,190,207,-1,207,190,191,-1,207,191,208,-1,208,191,192,-1,208,192,209,-1,209,192,193,-1,209,193,210,-1,210,193,194,-1,210,194,211,-1,211,194,195,-1,211,195,212,-1,212,195,196,-1,212,196,213,-1,213,196,197,-1,213,197,214,-1,214,197,198,-1,214,198,215,-1,215,198,199,-1,215,199,216,-1,216,199,200,-1,216,200,217,-1,217,200,201,-1,217,201,218,-1,218,201,202,-1,218,202,219,-1,219,202,203,-1,219,203,220,-1,221,222,223,-1,42,41,51,-1,51,41,204,-1,51,204,224,-1,224,204,205,-1,224,205,225,-1,225,205,206,-1,225,206,226,-1,226,206,207,-1,226,207,227,-1,227,207,208,-1,227,208,228,-1,228,208,209,-1,228,209,229,-1,229,209,210,-1,229,210,230,-1,230,210,211,-1,230,211,231,-1,231,211,212,-1,231,212,232,-1,232,212,213,-1,232,213,233,-1,233,213,214,-1,233,214,234,-1,234,214,215,-1,234,215,235,-1,235,215,216,-1,235,216,236,-1,236,216,217,-1,236,217,237,-1,237,217,218,-1,237,218,238,-1,238,218,219,-1,238,219,239,-1,239,219,220,-1,239,220,240,-1,52,51,59,-1,59,51,224,-1,59,224,241,-1,241,224,225,-1,241,225,242,-1,242,225,226,-1,242,226,243,-1,243,226,227,-1,243,227,244,-1,244,227,228,-1,244,228,245,-1,245,228,229,-1,245,229,246,-1,246,229,230,-1,246,230,247,-1,247,230,231,-1,247,231,248,-1,248,231,232,-1,248,232,249,-1,249,232,233,-1,249,233,250,-1,250,233,234,-1,250,234,251,-1,251,234,235,-1,251,235,252,-1,252,235,236,-1,252,236,253,-1,253,236,237,-1,253,237,254,-1,254,237,238,-1,254,238,255,-1,255,238,239,-1,255,239,256,-1,256,239,240,-1,256,240,257,-1,60,59,68,-1,68,59,241,-1,68,241,258,-1,258,241,242,-1,258,242,259,-1,259,242,243,-1,259,243,260,-1,260,243,244,-1,260,244,261,-1,261,244,245,-1,261,245,262,-1,262,245,246,-1,262,246,263,-1,263,246,247,-1,263,247,264,-1,264,247,248,-1,264,248,265,-1,265,248,249,-1,265,249,266,-1,266,249,250,-1,266,250,267,-1,267,250,251,-1,267,251,268,-1,268,251,252,-1,268,252,269,-1,269,252,253,-1,269,253,270,-1,270,253,254,-1,270,254,271,-1,271,254,255,-1,271,255,272,-1,272,255,256,-1,272,256,273,-1,273,256,257,-1,273,257,274,-1,275,276,277,-1,69,68,84,-1,84,68,258,-1,84,258,278,-1,278,258,259,-1,278,259,279,-1,279,259,260,-1,279,260,280,-1,280,260,261,-1,280,261,281,-1,281,261,262,-1,281,262,282,-1,282,262,263,-1,282,263,283,-1,283,263,264,-1,283,264,284,-1,284,264,265,-1,284,265,285,-1,285,265,266,-1,285,266,286,-1,286,266,267,-1,286,267,287,-1,287,267,268,-1,287,268,288,-1,288,268,269,-1,288,269,289,-1,289,269,270,-1,289,270,290,-1,290,270,271,-1,290,271,291,-1,291,271,272,-1,291,272,292,-1,292,272,273,-1,292,273,293,-1,293,273,274,-1,293,274,294,-1,85,84,99,-1,99,84,278,-1,99,278,295,-1,295,278,279,-1,295,279,296,-1,296,279,280,-1,296,280,297,-1,297,280,281,-1,297,281,298,-1,298,281,282,-1,298,282,299,-1,299,282,283,-1,299,283,300,-1,300,283,284,-1,300,284,301,-1,301,284,285,-1,301,285,302,-1,302,285,286,-1,302,286,303,-1,303,286,287,-1,303,287,304,-1,304,287,288,-1,304,288,305,-1,305,288,289,-1,305,289,306,-1,306,289,290,-1,306,290,307,-1,307,290,291,-1,307,291,308,-1,308,291,292,-1,308,292,309,-1,309,292,293,-1,309,293,310,-1,310,293,294,-1,310,294,311,-1,100,99,101,-1,101,99,295,-1,101,295,312,-1,312,295,296,-1,312,296,313,-1,313,296,297,-1,313,297,314,-1,314,297,298,-1,314,298,315,-1,315,298,299,-1,315,299,316,-1,316,299,300,-1,316,300,317,-1,317,300,301,-1,317,301,318,-1,318,301,302,-1,318,302,319,-1,319,302,303,-1,319,303,320,-1,320,303,304,-1,320,304,321,-1,321,304,305,-1,321,305,322,-1,322,305,306,-1,322,306,323,-1,323,306,307,-1,323,307,324,-1,324,307,308,-1,324,308,325,-1,325,308,309,-1,325,309,326,-1,326,309,310,-1,326,310,327,-1,327,310,311,-1,327,311,328,-1,102,101,127,-1,127,101,312,-1,127,312,329,-1,329,312,313,-1,329,313,330,-1,330,313,314,-1,330,314,331,-1,331,314,315,-1,331,315,332,-1,332,315,316,-1,332,316,333,-1,333,316,317,-1,333,317,334,-1,334,317,318,-1,334,318,335,-1,335,318,319,-1,335,319,336,-1,336,319,320,-1,336,320,337,-1,337,320,321,-1,337,321,338,-1,338,321,322,-1,338,322,339,-1,339,322,323,-1,339,323,340,-1,340,323,324,-1,340,324,341,-1,341,324,325,-1,341,325,342,-1,342,325,326,-1,342,326,343,-1,343,326,327,-1,343,327,344,-1,344,327,328,-1,344,328,345,-1,346,347,348,-1,128,127,134,-1,134,127,329,-1,134,329,349,-1,349,329,330,-1,349,330,350,-1,350,330,331,-1,350,331,351,-1,351,331,332,-1,351,332,352,-1,352,332,333,-1,352,333,353,-1,353,333,334,-1,353,334,354,-1,354,334,335,-1,354,335,355,-1,355,335,336,-1,355,336,356,-1,356,336,337,-1,356,337,357,-1,357,337,338,-1,357,338,358,-1,358,338,339,-1,358,339,359,-1,359,339,340,-1,359,340,360,-1,360,340,341,-1,360,341,361,-1,361,341,342,-1,361,342,362,-1,362,342,343,-1,362,343,363,-1,363,343,344,-1,363,344,364,-1,364,344,345,-1,364,345,365,-1,137,136,366,-1,366,136,367,-1,366,367,368,-1,368,367,369,-1,368,369,370,-1,370,369,371,-1,370,371,372,-1,372,371,373,-1,372,373,374,-1,374,373,375,-1,374,375,376,-1,376,375,377,-1,376,377,378,-1,378,377,379,-1,378,379,380,-1,380,379,381,-1,380,381,382,-1,382,381,383,-1,382,383,384,-1,384,383,385,-1,384,385,386,-1,386,385,387,-1,386,387,388,-1,388,387,389,-1,388,389,390,-1,390,389,391,-1,390,391,392,-1,392,391,393,-1,392,393,394,-1,394,393,395,-1,394,395,396,-1,396,395,397,-1,396,397,2,-1,135,134,136,-1,136,134,349,-1,136,349,367,-1,367,349,350,-1,367,350,369,-1,369,350,351,-1,369,351,371,-1,371,351,352,-1,371,352,373,-1,373,352,353,-1,373,353,375,-1,375,353,354,-1,375,354,377,-1,377,354,355,-1,377,355,379,-1,379,355,356,-1,379,356,381,-1,381,356,357,-1,381,357,383,-1,383,357,358,-1,383,358,385,-1,385,358,359,-1,385,359,387,-1,387,359,360,-1,387,360,389,-1,389,360,361,-1,389,361,391,-1,391,361,362,-1,391,362,393,-1,393,362,363,-1,393,363,395,-1,395,363,364,-1,395,364,397,-1,397,364,365,-1,397,365,2,-1,167,16,164,-1,164,16,18,-1,164,18,165,-1,165,18,398,-1,165,398,186,-1,186,398,399,-1,186,399,203,-1,203,399,400,-1,203,400,220,-1,220,400,401,-1,220,401,240,-1,240,401,402,-1,240,402,257,-1,257,402,403,-1,257,403,274,-1,274,403,404,-1,274,404,294,-1,294,404,405,-1,294,405,311,-1,311,405,406,-1,311,406,328,-1,328,406,407,-1,328,407,345,-1,345,407,408,-1,345,408,365,-1,365,408,2,-1,17,409,18,-1,18,409,410,-1,18,410,398,-1,398,410,411,-1,398,411,399,-1,399,411,412,-1,399,412,400,-1,400,412,413,-1,400,413,401,-1,401,413,414,-1,401,414,402,-1,402,414,415,-1,402,415,403,-1,403,415,416,-1,403,416,404,-1,404,416,417,-1,404,417,405,-1,405,417,418,-1,405,418,406,-1,406,418,419,-1,406,419,407,-1,407,419,420,-1,407,420,408,-1,408,420,2,-1,409,221,410,-1,410,221,223,-1,410,223,411,-1,411,223,421,-1,411,421,412,-1,412,421,422,-1,412,422,413,-1,413,422,423,-1,413,423,414,-1,414,423,424,-1,414,424,415,-1,415,424,425,-1,415,425,416,-1,416,425,426,-1,416,426,417,-1,417,426,427,-1,417,427,418,-1,418,427,428,-1,418,428,419,-1,419,428,429,-1,419,429,420,-1,420,429,2,-1,222,13,223,-1,223,13,15,-1,223,15,421,-1,421,15,430,-1,421,430,422,-1,422,430,431,-1,422,431,423,-1,423,431,432,-1,423,432,424,-1,424,432,433,-1,424,433,425,-1,425,433,434,-1,425,434,426,-1,426,434,435,-1,426,435,427,-1,427,435,436,-1,427,436,428,-1,428,436,437,-1,428,437,429,-1,429,437,2,-1,14,438,15,-1,15,438,439,-1,15,439,430,-1,430,439,440,-1,430,440,431,-1,431,440,441,-1,431,441,432,-1,432,441,442,-1,432,442,433,-1,433,442,443,-1,433,443,434,-1,434,443,444,-1,434,444,435,-1,435,444,445,-1,435,445,436,-1,436,445,446,-1,436,446,437,-1,437,446,2,-1,438,275,439,-1,439,275,277,-1,439,277,440,-1,440,277,447,-1,440,447,441,-1,441,447,448,-1,441,448,442,-1,442,448,449,-1,442,449,443,-1,443,449,450,-1,443,450,444,-1,444,450,451,-1,444,451,445,-1,445,451,452,-1,445,452,446,-1,446,452,2,-1,276,10,277,-1,277,10,12,-1,277,12,447,-1,447,12,453,-1,447,453,448,-1,448,453,454,-1,448,454,449,-1,449,454,455,-1,449,455,450,-1,450,455,456,-1,450,456,451,-1,451,456,457,-1,451,457,452,-1,452,457,2,-1,11,7,12,-1,12,7,9,-1,12,9,453,-1,453,9,458,-1,453,458,454,-1,454,458,459,-1,454,459,455,-1,455,459,460,-1,455,460,456,-1,456,460,461,-1,456,461,457,-1,457,461,2,-1,8,462,9,-1,9,462,463,-1,9,463,458,-1,458,463,464,-1,458,464,459,-1,459,464,465,-1,459,465,460,-1,460,465,466,-1,460,466,461,-1,461,466,2,-1,462,346,463,-1,463,346,348,-1,463,348,464,-1,464,348,467,-1,464,467,465,-1,465,467,468,-1,465,468,466,-1,466,468,2,-1,347,4,348,-1,348,4,6,-1,348,6,467,-1,467,6,469,-1,467,469,468,-1,468,469,2,-1,137,106,135,-1,135,106,108,-1,135,108,128,-1,128,108,110,-1,128,110,102,-1,102,110,112,-1,102,112,100,-1,100,112,114,-1,100,114,85,-1,85,114,116,-1,85,116,69,-1,69,116,118,-1,69,118,60,-1,60,118,120,-1,60,120,52,-1,52,120,122,-1,52,122,42,-1,42,122,124,-1,42,124,34,-1,34,124,126,-1,34,126,32,-1,32,126,25,-1,107,98,109,-1,109,98,82,-1,109,82,111,-1,111,82,66,-1,111,66,113,-1,113,66,57,-1,113,57,115,-1,115,57,49,-1,115,49,117,-1,117,49,39,-1,117,39,119,-1,119,39,30,-1,119,30,121,-1,121,30,22,-1,121,22,123,-1,123,22,24,-1,123,24,125,-1,125,24,25,-1,5,3,6,-1,6,3,0,-1,6,0,469,-1,469,0,2,-1,2,1,470,-1,470,1,471,-1,1,3,471,-1,471,3,5,-1,471,5,472,-1,346,473,347,-1,347,473,472,-1,347,472,4,-1,4,472,5,-1,346,462,473,-1,473,462,8,-1,473,8,474,-1,8,7,474,-1,474,7,11,-1,474,11,475,-1,475,11,10,-1,475,10,476,-1,476,10,276,-1,476,276,275,-1,13,477,14,-1,14,477,476,-1,14,476,438,-1,438,476,275,-1,13,222,477,-1,477,222,221,-1,477,221,478,-1,221,409,478,-1,478,409,17,-1,478,17,479,-1,168,480,167,-1,167,480,479,-1,167,479,16,-1,16,479,17,-1,168,169,480,-1,480,169,147,-1,480,147,481,-1,147,145,481,-1,481,145,144,-1,481,144,482,-1,144,142,482,-1,482,142,141,-1,482,141,483,-1,483,141,139,-1,483,139,484,-1,484,139,138,-1,484,138,132,-1,104,485,129,-1,129,485,484,-1,129,484,130,-1,130,484,132,-1,104,103,485,-1,485,103,89,-1,485,89,486,-1,89,87,486,-1,486,87,86,-1,486,86,487,-1,71,488,73,-1,73,488,487,-1,73,487,75,-1,75,487,86,-1,71,70,488,-1,488,70,21,-1,488,21,489,-1,21,45,489,-1,489,45,44,-1,489,44,490,-1,25,491,26,-1,26,491,490,-1,26,490,43,-1,43,490,44,-1,
        ]
    }
}